<?xml version="1.0" standalone="no"?>
<!DOCTYPE svg PUBLIC "-//W3C//DTD SVG 20010904//EN"
 "http://www.w3.org/TR/2001/REC-SVG-20010904/DTD/svg10.dtd">
<svg version="1.0" xmlns="http://www.w3.org/2000/svg"
 width="914.000000pt" height="307.000000pt" viewBox="0 0 914.000000 307.000000"
 preserveAspectRatio="xMidYMid meet">
<metadata>
Created by potrace 1.16, written by Peter Selinger 2001-2019
</metadata>
<g transform="translate(0.000000,307.000000) scale(0.100000,-0.100000)"
fill="#000000" stroke="none">
<path d="M4798 2664 c-58 -18 -63 -25 -47 -68 19 -54 3 -66 -88 -66 -83 0 -97
-12 -68 -56 28 -43 14 -54 -65 -54 -103 0 -136 -24 -90 -65 47 -42 6 -64 -85
-45 -48 10 -60 9 -81 -4 -29 -20 -30 -26 -4 -59 23 -28 26 -56 8 -59 -7 -1
-49 -2 -93 -2 -69 -1 -80 -3 -83 -19 -5 -23 26 -59 42 -50 6 4 4 -4 -5 -17
-11 -17 -25 -24 -40 -23 -13 2 -49 6 -80 9 -67 8 -82 -6 -49 -41 28 -30 20
-60 -13 -52 -53 14 -103 17 -116 8 -12 -8 -12 -14 4 -37 12 -18 20 -24 23 -16
3 10 7 9 16 -4 11 -15 19 -13 92 21 43 20 99 47 124 58 58 27 379 242 524 351
63 47 173 135 245 196 l132 110 -78 -1 c-43 0 -99 -7 -125 -15z"/>
<path d="M3065 1522 c-3 -3 -78 -7 -168 -9 -89 -2 -181 -5 -204 -6 l-43 -2 0
-70 c0 -38 -7 -95 -15 -125 -8 -30 -13 -55 -12 -56 4 -4 194 -13 295 -15 121
-2 126 1 174 98 24 49 31 78 32 126 1 61 1 62 -26 63 -15 1 -30 -1 -33 -4z"/>
<path d="M2155 1489 c-86 -35 -152 -70 -214 -113 -56 -39 -161 -131 -161 -141
0 -3 12 -5 28 -5 16 0 42 12 62 30 53 46 58 50 69 50 5 0 11 4 13 8 10 25 182
124 272 156 15 5 16 9 6 21 -15 18 -14 18 -75 -6z"/>
<path d="M2215 1410 c-22 -10 -46 -19 -52 -19 -7 -1 -40 -14 -73 -30 -33 -16
-60 -27 -60 -24 0 2 -7 -3 -16 -11 -8 -9 -21 -16 -27 -16 -12 0 -103 -99 -96
-103 17 -11 124 -84 133 -91 8 -5 34 7 71 33 33 23 83 48 111 57 41 12 54 21
64 44 14 33 10 155 -5 169 -6 5 -27 1 -50 -9z"/>
<path d="M7587 1224 c-185 -45 -321 -183 -371 -380 -20 -79 -21 -241 -1 -319
62 -244 249 -395 490 -398 107 -1 179 15 260 56 209 108 317 389 254 656 -32
131 -126 266 -231 328 -106 65 -273 88 -401 57z m240 -240 c89 -52 135 -154
136 -299 1 -208 -91 -335 -243 -335 -153 1 -250 131 -250 337 0 100 20 176 60
232 72 99 194 125 297 65z"/>
<path d="M4897 1212 c-4 -5 4 -14 16 -19 39 -18 87 -64 87 -84 0 -26 -11 -24
-61 14 -87 67 -103 72 -234 73 -116 1 -121 0 -167 -28 -149 -93 -238 -274
-238 -483 0 -261 132 -470 338 -536 129 -41 322 -25 443 36 52 27 169 130 168
149 0 6 -36 39 -80 74 l-79 63 -34 -34 c-73 -74 -206 -106 -312 -77 -90 25
-165 109 -175 195 l-4 30 349 3 349 2 -6 123 c-6 132 -25 209 -73 297 -34 63
-92 124 -136 144 -18 9 -44 25 -58 36 -29 23 -85 37 -93 22z m-31 -204 c54
-25 101 -84 110 -137 3 -20 8 -44 11 -53 4 -17 -11 -18 -206 -18 -238 0 -225
-5 -200 81 37 121 171 181 285 127z"/>
<path d="M3350 874 c0 -315 -1 -335 -17 -330 -60 18 -468 51 -496 40 -19 -7
-28 -29 -21 -49 5 -12 31 -15 148 -15 77 0 196 -7 264 -16 l122 -17 0 -168 0
-169 136 0 135 0 -3 129 -3 128 63 -5 c37 -3 62 -1 62 5 0 18 -36 43 -84 59
-26 9 -46 18 -44 19 2 2 79 6 171 9 224 8 286 30 376 132 75 85 101 237 61
351 -10 29 -17 33 -83 47 -128 28 -200 36 -316 36 l-115 0 50 -35 c35 -25 59
-35 87 -35 92 0 143 -59 134 -153 -4 -42 -10 -56 -41 -84 l-36 -33 -140 0
-141 0 3 133 3 132 40 5 c34 5 37 7 18 13 -36 13 -71 63 -78 111 -7 41 -10 45
-39 48 -21 2 -34 10 -41 26 -9 20 -16 22 -92 22 l-83 0 0 -336z"/>
<path d="M5300 1095 l0 -115 140 0 140 0 0 -415 0 -415 135 0 135 0 0 415 0
415 140 0 140 0 0 115 0 115 -152 0 -151 0 39 -35 c50 -44 34 -44 -57 0 -40
19 -74 33 -76 31 -2 -2 10 -17 27 -34 18 -18 30 -41 30 -56 0 -37 -16 -32 -44
13 -29 46 -71 81 -98 81 -17 0 -18 -2 -3 -30 19 -37 19 -76 0 -84 -10 -4 -17
3 -21 22 -17 71 -64 92 -209 92 l-115 0 0 -115z"/>
<path d="M6230 680 l0 -531 138 3 137 3 0 190 0 190 50 3 50 2 115 -195 115
-195 158 0 c87 0 156 3 154 7 -3 5 -59 97 -126 205 -66 108 -121 199 -121 202
0 3 6 6 14 6 8 0 41 20 74 44 48 36 66 58 94 113 29 60 33 77 33 148 0 71 -4
88 -33 147 -36 74 -78 114 -162 156 l-55 27 -317 3 -318 3 0 -531z m578 294
c29 -20 52 -66 52 -104 0 -17 -7 -44 -15 -60 -28 -55 -46 -60 -201 -60 l-141
0 1 120 1 120 140 0 c111 0 145 -3 163 -16z"/>
<path d="M8370 680 l0 -530 340 0 340 0 0 115 0 115 -205 0 -205 0 0 415 0
415 -135 0 -135 0 0 -530z"/>
<path d="M1813 750 c-20 -12 -33 -28 -33 -40 0 -13 -4 -19 -11 -14 -16 10 -29
-15 -29 -57 0 -61 95 -136 219 -173 57 -17 156 -22 133 -7 -8 5 -12 21 -10 37
2 23 12 34 48 52 27 13 37 22 25 22 -58 0 -215 110 -215 150 0 13 -60 50 -80
50 -8 0 -30 -9 -47 -20z"/>
</g>
</svg>
